# xmcd
#
# Track frame offsets:
#	150
#	14767
#	36368
#	54774
#	78618
#	91725
#
# Disc length: 1457 seconds
#
# Revision: 0
# Processed by: cddbd v1.5.1PL0 Copyright (c) Steve Scherf et al.
# Submitted via: dBpowerAMP V4.0
#
DISCID=4105af06
DTITLE=Fried Bourbon - Almost Late
DYEAR=1900
DGENRE=Blues
TTITLE0=The Neighborhood
TTITLE1=Almost Late
TTITLE2=On The Run
TTITLE3=Jukebox Boogie
TTITLE4=I Saw Him
TTITLE5=Everything's (Gonna Be Alright
EXTD=
EXTT0=
EXTT1=
EXTT2=
EXTT3=
EXTT4=
EXTT5=
PLAYORDER=
